<mxfile host="app.diagrams.net" modified="2021-06-30T03:48:09.139Z" agent="5.0 (Macintosh; Intel Mac OS X 10_15_7) AppleWebKit/537.36 (KHTML, like Gecko) Chrome/91.0.4472.114 Safari/537.36" etag="PiBHIGcK0x-wyPLnK4m5" version="14.7.6" type="github">
  <diagram id="2t6IbQ_3Ss9iCih5vvq7" name="Page-1">
    <mxGraphModel dx="2125" dy="774" grid="1" gridSize="10" guides="1" tooltips="1" connect="1" arrows="1" fold="1" page="1" pageScale="1" pageWidth="827" pageHeight="1169" math="0" shadow="0">
      <root>
        <mxCell id="0" />
        <mxCell id="1" parent="0" />
        <mxCell id="fpMx2bpj-IznDV89DZn9-18" value="" style="rounded=0;whiteSpace=wrap;html=1;" vertex="1" parent="1">
          <mxGeometry x="460" y="180" width="470" height="370" as="geometry" />
        </mxCell>
        <mxCell id="fpMx2bpj-IznDV89DZn9-13" value="" style="rounded=0;whiteSpace=wrap;html=1;" vertex="1" parent="1">
          <mxGeometry x="-40" y="180" width="470" height="370" as="geometry" />
        </mxCell>
        <mxCell id="fpMx2bpj-IznDV89DZn9-55" style="edgeStyle=orthogonalEdgeStyle;rounded=0;orthogonalLoop=1;jettySize=auto;html=1;entryX=0.5;entryY=0;entryDx=0;entryDy=0;" edge="1" parent="1" source="fpMx2bpj-IznDV89DZn9-1" target="fpMx2bpj-IznDV89DZn9-52">
          <mxGeometry relative="1" as="geometry" />
        </mxCell>
        <mxCell id="fpMx2bpj-IznDV89DZn9-1" value="hybris-dlc-center" style="rounded=0;whiteSpace=wrap;html=1;" vertex="1" parent="1">
          <mxGeometry x="170" y="310" width="120" height="30" as="geometry" />
        </mxCell>
        <mxCell id="fpMx2bpj-IznDV89DZn9-11" style="edgeStyle=orthogonalEdgeStyle;rounded=0;orthogonalLoop=1;jettySize=auto;html=1;entryX=0;entryY=0.5;entryDx=0;entryDy=0;" edge="1" parent="1" source="fpMx2bpj-IznDV89DZn9-2" target="fpMx2bpj-IznDV89DZn9-1">
          <mxGeometry relative="1" as="geometry" />
        </mxCell>
        <mxCell id="fpMx2bpj-IznDV89DZn9-2" value="eos-sql" style="rounded=0;whiteSpace=wrap;html=1;" vertex="1" parent="1">
          <mxGeometry x="10" y="230" width="120" height="60" as="geometry" />
        </mxCell>
        <mxCell id="fpMx2bpj-IznDV89DZn9-46" style="edgeStyle=orthogonalEdgeStyle;rounded=0;orthogonalLoop=1;jettySize=auto;html=1;entryX=0;entryY=0.5;entryDx=0;entryDy=0;" edge="1" parent="1" source="fpMx2bpj-IznDV89DZn9-3" target="fpMx2bpj-IznDV89DZn9-45">
          <mxGeometry relative="1" as="geometry" />
        </mxCell>
        <mxCell id="fpMx2bpj-IznDV89DZn9-157" style="edgeStyle=orthogonalEdgeStyle;rounded=0;orthogonalLoop=1;jettySize=auto;html=1;entryX=0;entryY=0.75;entryDx=0;entryDy=0;" edge="1" parent="1" source="fpMx2bpj-IznDV89DZn9-3" target="fpMx2bpj-IznDV89DZn9-1">
          <mxGeometry relative="1" as="geometry">
            <Array as="points">
              <mxPoint x="70" y="333" />
            </Array>
          </mxGeometry>
        </mxCell>
        <mxCell id="fpMx2bpj-IznDV89DZn9-3" value="presto" style="rounded=0;whiteSpace=wrap;html=1;" vertex="1" parent="1">
          <mxGeometry x="10" y="470" width="120" height="60" as="geometry" />
        </mxCell>
        <mxCell id="fpMx2bpj-IznDV89DZn9-48" style="edgeStyle=orthogonalEdgeStyle;rounded=0;orthogonalLoop=1;jettySize=auto;html=1;entryX=1;entryY=0.5;entryDx=0;entryDy=0;" edge="1" parent="1" source="fpMx2bpj-IznDV89DZn9-4" target="fpMx2bpj-IznDV89DZn9-45">
          <mxGeometry relative="1" as="geometry" />
        </mxCell>
        <mxCell id="fpMx2bpj-IznDV89DZn9-4" value="spark" style="rounded=0;whiteSpace=wrap;html=1;" vertex="1" parent="1">
          <mxGeometry x="270" y="470" width="120" height="60" as="geometry" />
        </mxCell>
        <mxCell id="fpMx2bpj-IznDV89DZn9-12" style="edgeStyle=orthogonalEdgeStyle;rounded=0;orthogonalLoop=1;jettySize=auto;html=1;entryX=1;entryY=0.5;entryDx=0;entryDy=0;" edge="1" parent="1" source="fpMx2bpj-IznDV89DZn9-5" target="fpMx2bpj-IznDV89DZn9-1">
          <mxGeometry relative="1" as="geometry" />
        </mxCell>
        <mxCell id="fpMx2bpj-IznDV89DZn9-5" value="treehole" style="rounded=0;whiteSpace=wrap;html=1;" vertex="1" parent="1">
          <mxGeometry x="260" y="230" width="120" height="60" as="geometry" />
        </mxCell>
        <mxCell id="fpMx2bpj-IznDV89DZn9-21" style="edgeStyle=orthogonalEdgeStyle;rounded=0;orthogonalLoop=1;jettySize=auto;html=1;entryX=0;entryY=0.5;entryDx=0;entryDy=0;" edge="1" parent="1" source="fpMx2bpj-IznDV89DZn9-6" target="fpMx2bpj-IznDV89DZn9-8">
          <mxGeometry relative="1" as="geometry" />
        </mxCell>
        <mxCell id="fpMx2bpj-IznDV89DZn9-6" value="razzil" style="rounded=0;whiteSpace=wrap;html=1;" vertex="1" parent="1">
          <mxGeometry x="480" y="240" width="120" height="60" as="geometry" />
        </mxCell>
        <mxCell id="fpMx2bpj-IznDV89DZn9-51" style="edgeStyle=orthogonalEdgeStyle;rounded=0;orthogonalLoop=1;jettySize=auto;html=1;exitX=1;exitY=0.5;exitDx=0;exitDy=0;entryX=0;entryY=0.5;entryDx=0;entryDy=0;" edge="1" parent="1" source="fpMx2bpj-IznDV89DZn9-8" target="fpMx2bpj-IznDV89DZn9-50">
          <mxGeometry relative="1" as="geometry" />
        </mxCell>
        <mxCell id="fpMx2bpj-IznDV89DZn9-59" style="edgeStyle=orthogonalEdgeStyle;rounded=0;orthogonalLoop=1;jettySize=auto;html=1;entryX=0.25;entryY=0;entryDx=0;entryDy=0;" edge="1" parent="1" source="fpMx2bpj-IznDV89DZn9-8" target="fpMx2bpj-IznDV89DZn9-57">
          <mxGeometry relative="1" as="geometry" />
        </mxCell>
        <mxCell id="fpMx2bpj-IznDV89DZn9-8" value="hybris-center" style="rounded=0;whiteSpace=wrap;html=1;" vertex="1" parent="1">
          <mxGeometry x="620" y="360" width="120" height="30" as="geometry" />
        </mxCell>
        <mxCell id="fpMx2bpj-IznDV89DZn9-14" value="DLC元数据流" style="text;html=1;strokeColor=none;fillColor=none;align=center;verticalAlign=middle;whiteSpace=wrap;rounded=0;" vertex="1" parent="1">
          <mxGeometry x="-20" y="190" width="40" height="20" as="geometry" />
        </mxCell>
        <mxCell id="fpMx2bpj-IznDV89DZn9-22" style="edgeStyle=orthogonalEdgeStyle;rounded=0;orthogonalLoop=1;jettySize=auto;html=1;" edge="1" parent="1" source="fpMx2bpj-IznDV89DZn9-17" target="fpMx2bpj-IznDV89DZn9-8">
          <mxGeometry relative="1" as="geometry" />
        </mxCell>
        <mxCell id="fpMx2bpj-IznDV89DZn9-17" value="treehole" style="rounded=0;whiteSpace=wrap;html=1;" vertex="1" parent="1">
          <mxGeometry x="640" y="200" width="120" height="60" as="geometry" />
        </mxCell>
        <mxCell id="fpMx2bpj-IznDV89DZn9-20" style="edgeStyle=orthogonalEdgeStyle;rounded=0;orthogonalLoop=1;jettySize=auto;html=1;entryX=0.5;entryY=1;entryDx=0;entryDy=0;" edge="1" parent="1" source="fpMx2bpj-IznDV89DZn9-19" target="fpMx2bpj-IznDV89DZn9-8">
          <mxGeometry relative="1" as="geometry" />
        </mxCell>
        <mxCell id="fpMx2bpj-IznDV89DZn9-19" value="spark&lt;br&gt;元数据发现任务&lt;br&gt;数据入湖任务" style="rounded=0;whiteSpace=wrap;html=1;" vertex="1" parent="1">
          <mxGeometry x="580" y="470" width="120" height="60" as="geometry" />
        </mxCell>
        <mxCell id="fpMx2bpj-IznDV89DZn9-23" value="DLF元数据流" style="text;html=1;strokeColor=none;fillColor=none;align=center;verticalAlign=middle;whiteSpace=wrap;rounded=0;" vertex="1" parent="1">
          <mxGeometry x="850" y="200" width="40" height="20" as="geometry" />
        </mxCell>
        <mxCell id="fpMx2bpj-IznDV89DZn9-56" style="edgeStyle=orthogonalEdgeStyle;rounded=0;orthogonalLoop=1;jettySize=auto;html=1;" edge="1" parent="1" source="fpMx2bpj-IznDV89DZn9-45" target="fpMx2bpj-IznDV89DZn9-52">
          <mxGeometry relative="1" as="geometry" />
        </mxCell>
        <mxCell id="fpMx2bpj-IznDV89DZn9-45" value="hybris-hms" style="rounded=0;whiteSpace=wrap;html=1;" vertex="1" parent="1">
          <mxGeometry x="170" y="440" width="120" height="30" as="geometry" />
        </mxCell>
        <mxCell id="fpMx2bpj-IznDV89DZn9-58" style="edgeStyle=orthogonalEdgeStyle;rounded=0;orthogonalLoop=1;jettySize=auto;html=1;" edge="1" parent="1" source="fpMx2bpj-IznDV89DZn9-50" target="fpMx2bpj-IznDV89DZn9-57">
          <mxGeometry relative="1" as="geometry" />
        </mxCell>
        <mxCell id="fpMx2bpj-IznDV89DZn9-50" value="hybris-hms" style="rounded=0;whiteSpace=wrap;html=1;" vertex="1" parent="1">
          <mxGeometry x="780" y="360" width="120" height="30" as="geometry" />
        </mxCell>
        <mxCell id="fpMx2bpj-IznDV89DZn9-52" value="hybris-service" style="rounded=0;whiteSpace=wrap;html=1;" vertex="1" parent="1">
          <mxGeometry x="170" y="380" width="120" height="30" as="geometry" />
        </mxCell>
        <mxCell id="fpMx2bpj-IznDV89DZn9-57" value="hybris-service" style="rounded=0;whiteSpace=wrap;html=1;" vertex="1" parent="1">
          <mxGeometry x="707" y="420" width="120" height="30" as="geometry" />
        </mxCell>
        <mxCell id="fpMx2bpj-IznDV89DZn9-61" value="" style="rounded=0;whiteSpace=wrap;html=1;" vertex="1" parent="1">
          <mxGeometry x="460" y="610" width="470" height="370" as="geometry" />
        </mxCell>
        <mxCell id="fpMx2bpj-IznDV89DZn9-62" value="" style="rounded=0;whiteSpace=wrap;html=1;" vertex="1" parent="1">
          <mxGeometry x="-40" y="610" width="470" height="370" as="geometry" />
        </mxCell>
        <mxCell id="fpMx2bpj-IznDV89DZn9-63" style="edgeStyle=orthogonalEdgeStyle;rounded=0;orthogonalLoop=1;jettySize=auto;html=1;entryX=0.5;entryY=0;entryDx=0;entryDy=0;" edge="1" parent="1" source="fpMx2bpj-IznDV89DZn9-64" target="fpMx2bpj-IznDV89DZn9-88">
          <mxGeometry relative="1" as="geometry" />
        </mxCell>
        <mxCell id="fpMx2bpj-IznDV89DZn9-64" value="hybris-dlc-center" style="rounded=0;whiteSpace=wrap;html=1;" vertex="1" parent="1">
          <mxGeometry x="170" y="740" width="120" height="30" as="geometry" />
        </mxCell>
        <mxCell id="fpMx2bpj-IznDV89DZn9-65" style="edgeStyle=orthogonalEdgeStyle;rounded=0;orthogonalLoop=1;jettySize=auto;html=1;entryX=0;entryY=0.5;entryDx=0;entryDy=0;" edge="1" parent="1" source="fpMx2bpj-IznDV89DZn9-66" target="fpMx2bpj-IznDV89DZn9-64">
          <mxGeometry relative="1" as="geometry" />
        </mxCell>
        <mxCell id="fpMx2bpj-IznDV89DZn9-66" value="eos-sql" style="rounded=0;whiteSpace=wrap;html=1;" vertex="1" parent="1">
          <mxGeometry x="10" y="660" width="120" height="60" as="geometry" />
        </mxCell>
        <mxCell id="fpMx2bpj-IznDV89DZn9-67" style="edgeStyle=orthogonalEdgeStyle;rounded=0;orthogonalLoop=1;jettySize=auto;html=1;entryX=0;entryY=0.5;entryDx=0;entryDy=0;" edge="1" parent="1" source="fpMx2bpj-IznDV89DZn9-68" target="fpMx2bpj-IznDV89DZn9-85">
          <mxGeometry relative="1" as="geometry" />
        </mxCell>
        <mxCell id="fpMx2bpj-IznDV89DZn9-156" style="edgeStyle=orthogonalEdgeStyle;rounded=0;orthogonalLoop=1;jettySize=auto;html=1;entryX=0;entryY=0.75;entryDx=0;entryDy=0;" edge="1" parent="1" source="fpMx2bpj-IznDV89DZn9-68" target="fpMx2bpj-IznDV89DZn9-64">
          <mxGeometry relative="1" as="geometry">
            <Array as="points">
              <mxPoint x="70" y="763" />
            </Array>
          </mxGeometry>
        </mxCell>
        <mxCell id="fpMx2bpj-IznDV89DZn9-68" value="presto" style="rounded=0;whiteSpace=wrap;html=1;" vertex="1" parent="1">
          <mxGeometry x="10" y="900" width="120" height="60" as="geometry" />
        </mxCell>
        <mxCell id="fpMx2bpj-IznDV89DZn9-69" style="edgeStyle=orthogonalEdgeStyle;rounded=0;orthogonalLoop=1;jettySize=auto;html=1;entryX=1;entryY=0.5;entryDx=0;entryDy=0;" edge="1" parent="1" source="fpMx2bpj-IznDV89DZn9-70" target="fpMx2bpj-IznDV89DZn9-85">
          <mxGeometry relative="1" as="geometry" />
        </mxCell>
        <mxCell id="fpMx2bpj-IznDV89DZn9-70" value="spark" style="rounded=0;whiteSpace=wrap;html=1;" vertex="1" parent="1">
          <mxGeometry x="270" y="900" width="120" height="60" as="geometry" />
        </mxCell>
        <mxCell id="fpMx2bpj-IznDV89DZn9-71" style="edgeStyle=orthogonalEdgeStyle;rounded=0;orthogonalLoop=1;jettySize=auto;html=1;entryX=1;entryY=0.5;entryDx=0;entryDy=0;" edge="1" parent="1" source="fpMx2bpj-IznDV89DZn9-72" target="fpMx2bpj-IznDV89DZn9-64">
          <mxGeometry relative="1" as="geometry" />
        </mxCell>
        <mxCell id="fpMx2bpj-IznDV89DZn9-72" value="treehole" style="rounded=0;whiteSpace=wrap;html=1;" vertex="1" parent="1">
          <mxGeometry x="260" y="660" width="120" height="60" as="geometry" />
        </mxCell>
        <mxCell id="fpMx2bpj-IznDV89DZn9-90" style="edgeStyle=orthogonalEdgeStyle;rounded=0;orthogonalLoop=1;jettySize=auto;html=1;entryX=1;entryY=0.5;entryDx=0;entryDy=0;" edge="1" parent="1" source="fpMx2bpj-IznDV89DZn9-74" target="fpMx2bpj-IznDV89DZn9-77">
          <mxGeometry relative="1" as="geometry" />
        </mxCell>
        <mxCell id="fpMx2bpj-IznDV89DZn9-74" value="razzil" style="rounded=0;whiteSpace=wrap;html=1;" vertex="1" parent="1">
          <mxGeometry x="480" y="670" width="120" height="60" as="geometry" />
        </mxCell>
        <mxCell id="fpMx2bpj-IznDV89DZn9-92" style="edgeStyle=orthogonalEdgeStyle;rounded=0;orthogonalLoop=1;jettySize=auto;html=1;exitX=0;exitY=0.5;exitDx=0;exitDy=0;" edge="1" parent="1" source="fpMx2bpj-IznDV89DZn9-77" target="fpMx2bpj-IznDV89DZn9-88">
          <mxGeometry relative="1" as="geometry" />
        </mxCell>
        <mxCell id="fpMx2bpj-IznDV89DZn9-93" style="edgeStyle=orthogonalEdgeStyle;rounded=0;orthogonalLoop=1;jettySize=auto;html=1;entryX=1;entryY=0.25;entryDx=0;entryDy=0;" edge="1" parent="1" source="fpMx2bpj-IznDV89DZn9-77" target="fpMx2bpj-IznDV89DZn9-85">
          <mxGeometry relative="1" as="geometry">
            <Array as="points">
              <mxPoint x="330" y="835" />
              <mxPoint x="310" y="835" />
              <mxPoint x="310" y="878" />
            </Array>
          </mxGeometry>
        </mxCell>
        <mxCell id="fpMx2bpj-IznDV89DZn9-77" value="hybris-center" style="rounded=0;whiteSpace=wrap;html=1;" vertex="1" parent="1">
          <mxGeometry x="304" y="770" width="110" height="30" as="geometry" />
        </mxCell>
        <mxCell id="fpMx2bpj-IznDV89DZn9-78" value="DLC元数据流" style="text;html=1;strokeColor=none;fillColor=none;align=center;verticalAlign=middle;whiteSpace=wrap;rounded=0;" vertex="1" parent="1">
          <mxGeometry x="-20" y="620" width="40" height="20" as="geometry" />
        </mxCell>
        <mxCell id="fpMx2bpj-IznDV89DZn9-79" style="edgeStyle=orthogonalEdgeStyle;rounded=0;orthogonalLoop=1;jettySize=auto;html=1;" edge="1" parent="1" source="fpMx2bpj-IznDV89DZn9-80" target="fpMx2bpj-IznDV89DZn9-77">
          <mxGeometry relative="1" as="geometry">
            <Array as="points">
              <mxPoint x="700" y="740" />
              <mxPoint x="359" y="740" />
            </Array>
          </mxGeometry>
        </mxCell>
        <mxCell id="fpMx2bpj-IznDV89DZn9-80" value="treehole" style="rounded=0;whiteSpace=wrap;html=1;" vertex="1" parent="1">
          <mxGeometry x="640" y="630" width="120" height="60" as="geometry" />
        </mxCell>
        <mxCell id="fpMx2bpj-IznDV89DZn9-91" style="edgeStyle=orthogonalEdgeStyle;rounded=0;orthogonalLoop=1;jettySize=auto;html=1;" edge="1" parent="1" source="fpMx2bpj-IznDV89DZn9-82" target="fpMx2bpj-IznDV89DZn9-77">
          <mxGeometry relative="1" as="geometry">
            <Array as="points">
              <mxPoint x="640" y="840" />
              <mxPoint x="359" y="840" />
            </Array>
          </mxGeometry>
        </mxCell>
        <mxCell id="fpMx2bpj-IznDV89DZn9-82" value="spark&lt;br&gt;元数据发现任务&lt;br&gt;数据入湖任务" style="rounded=0;whiteSpace=wrap;html=1;" vertex="1" parent="1">
          <mxGeometry x="580" y="900" width="120" height="60" as="geometry" />
        </mxCell>
        <mxCell id="fpMx2bpj-IznDV89DZn9-83" value="DLF元数据流" style="text;html=1;strokeColor=none;fillColor=none;align=center;verticalAlign=middle;whiteSpace=wrap;rounded=0;" vertex="1" parent="1">
          <mxGeometry x="850" y="630" width="40" height="20" as="geometry" />
        </mxCell>
        <mxCell id="fpMx2bpj-IznDV89DZn9-84" style="edgeStyle=orthogonalEdgeStyle;rounded=0;orthogonalLoop=1;jettySize=auto;html=1;" edge="1" parent="1" source="fpMx2bpj-IznDV89DZn9-85" target="fpMx2bpj-IznDV89DZn9-88">
          <mxGeometry relative="1" as="geometry" />
        </mxCell>
        <mxCell id="fpMx2bpj-IznDV89DZn9-85" value="hybris-hms" style="rounded=0;whiteSpace=wrap;html=1;" vertex="1" parent="1">
          <mxGeometry x="170" y="870" width="120" height="30" as="geometry" />
        </mxCell>
        <mxCell id="fpMx2bpj-IznDV89DZn9-88" value="hybris-service" style="rounded=0;whiteSpace=wrap;html=1;" vertex="1" parent="1">
          <mxGeometry x="170" y="810" width="120" height="30" as="geometry" />
        </mxCell>
        <mxCell id="fpMx2bpj-IznDV89DZn9-120" value="" style="rounded=0;whiteSpace=wrap;html=1;" vertex="1" parent="1">
          <mxGeometry x="460" y="1110" width="470" height="370" as="geometry" />
        </mxCell>
        <mxCell id="fpMx2bpj-IznDV89DZn9-121" value="" style="rounded=0;whiteSpace=wrap;html=1;" vertex="1" parent="1">
          <mxGeometry x="-40" y="1110" width="470" height="370" as="geometry" />
        </mxCell>
        <mxCell id="fpMx2bpj-IznDV89DZn9-124" style="edgeStyle=orthogonalEdgeStyle;rounded=0;orthogonalLoop=1;jettySize=auto;html=1;entryX=0.25;entryY=0;entryDx=0;entryDy=0;" edge="1" parent="1" source="fpMx2bpj-IznDV89DZn9-125" target="fpMx2bpj-IznDV89DZn9-149">
          <mxGeometry relative="1" as="geometry">
            <mxPoint x="170" y="1255" as="targetPoint" />
            <Array as="points">
              <mxPoint x="70" y="1050" />
              <mxPoint x="560" y="1050" />
            </Array>
          </mxGeometry>
        </mxCell>
        <mxCell id="fpMx2bpj-IznDV89DZn9-125" value="eos-sql" style="rounded=0;whiteSpace=wrap;html=1;" vertex="1" parent="1">
          <mxGeometry x="10" y="1160" width="120" height="60" as="geometry" />
        </mxCell>
        <mxCell id="fpMx2bpj-IznDV89DZn9-126" style="edgeStyle=orthogonalEdgeStyle;rounded=0;orthogonalLoop=1;jettySize=auto;html=1;entryX=0;entryY=0.5;entryDx=0;entryDy=0;" edge="1" parent="1" source="fpMx2bpj-IznDV89DZn9-127" target="fpMx2bpj-IznDV89DZn9-144">
          <mxGeometry relative="1" as="geometry" />
        </mxCell>
        <mxCell id="fpMx2bpj-IznDV89DZn9-127" value="presto" style="rounded=0;whiteSpace=wrap;html=1;" vertex="1" parent="1">
          <mxGeometry x="10" y="1400" width="120" height="60" as="geometry" />
        </mxCell>
        <mxCell id="fpMx2bpj-IznDV89DZn9-128" style="edgeStyle=orthogonalEdgeStyle;rounded=0;orthogonalLoop=1;jettySize=auto;html=1;entryX=1;entryY=0.5;entryDx=0;entryDy=0;" edge="1" parent="1" source="fpMx2bpj-IznDV89DZn9-129" target="fpMx2bpj-IznDV89DZn9-144">
          <mxGeometry relative="1" as="geometry" />
        </mxCell>
        <mxCell id="fpMx2bpj-IznDV89DZn9-129" value="spark" style="rounded=0;whiteSpace=wrap;html=1;" vertex="1" parent="1">
          <mxGeometry x="270" y="1400" width="120" height="60" as="geometry" />
        </mxCell>
        <mxCell id="fpMx2bpj-IznDV89DZn9-152" style="edgeStyle=orthogonalEdgeStyle;rounded=0;orthogonalLoop=1;jettySize=auto;html=1;entryX=0;entryY=0;entryDx=0;entryDy=0;" edge="1" parent="1" source="fpMx2bpj-IznDV89DZn9-131" target="fpMx2bpj-IznDV89DZn9-149">
          <mxGeometry relative="1" as="geometry">
            <Array as="points">
              <mxPoint x="350" y="1080" />
              <mxPoint x="530" y="1080" />
            </Array>
          </mxGeometry>
        </mxCell>
        <mxCell id="fpMx2bpj-IznDV89DZn9-131" value="treehole" style="rounded=0;whiteSpace=wrap;html=1;" vertex="1" parent="1">
          <mxGeometry x="260" y="1160" width="120" height="60" as="geometry" />
        </mxCell>
        <mxCell id="fpMx2bpj-IznDV89DZn9-132" style="edgeStyle=orthogonalEdgeStyle;rounded=0;orthogonalLoop=1;jettySize=auto;html=1;entryX=0;entryY=0.5;entryDx=0;entryDy=0;" edge="1" parent="1" source="fpMx2bpj-IznDV89DZn9-133" target="fpMx2bpj-IznDV89DZn9-136">
          <mxGeometry relative="1" as="geometry" />
        </mxCell>
        <mxCell id="fpMx2bpj-IznDV89DZn9-133" value="razzil" style="rounded=0;whiteSpace=wrap;html=1;" vertex="1" parent="1">
          <mxGeometry x="480" y="1170" width="120" height="60" as="geometry" />
        </mxCell>
        <mxCell id="fpMx2bpj-IznDV89DZn9-134" style="edgeStyle=orthogonalEdgeStyle;rounded=0;orthogonalLoop=1;jettySize=auto;html=1;exitX=1;exitY=0.5;exitDx=0;exitDy=0;entryX=0;entryY=0.5;entryDx=0;entryDy=0;" edge="1" parent="1" source="fpMx2bpj-IznDV89DZn9-136" target="fpMx2bpj-IznDV89DZn9-146">
          <mxGeometry relative="1" as="geometry" />
        </mxCell>
        <mxCell id="fpMx2bpj-IznDV89DZn9-135" style="edgeStyle=orthogonalEdgeStyle;rounded=0;orthogonalLoop=1;jettySize=auto;html=1;entryX=0.25;entryY=0;entryDx=0;entryDy=0;" edge="1" parent="1" source="fpMx2bpj-IznDV89DZn9-136" target="fpMx2bpj-IznDV89DZn9-148">
          <mxGeometry relative="1" as="geometry" />
        </mxCell>
        <mxCell id="fpMx2bpj-IznDV89DZn9-136" value="hybris-center" style="rounded=0;whiteSpace=wrap;html=1;" vertex="1" parent="1">
          <mxGeometry x="620" y="1290" width="120" height="30" as="geometry" />
        </mxCell>
        <mxCell id="fpMx2bpj-IznDV89DZn9-137" value="DLC元数据流" style="text;html=1;strokeColor=none;fillColor=none;align=center;verticalAlign=middle;whiteSpace=wrap;rounded=0;" vertex="1" parent="1">
          <mxGeometry x="-20" y="1120" width="40" height="20" as="geometry" />
        </mxCell>
        <mxCell id="fpMx2bpj-IznDV89DZn9-138" style="edgeStyle=orthogonalEdgeStyle;rounded=0;orthogonalLoop=1;jettySize=auto;html=1;" edge="1" parent="1" source="fpMx2bpj-IznDV89DZn9-139" target="fpMx2bpj-IznDV89DZn9-136">
          <mxGeometry relative="1" as="geometry" />
        </mxCell>
        <mxCell id="fpMx2bpj-IznDV89DZn9-139" value="treehole" style="rounded=0;whiteSpace=wrap;html=1;" vertex="1" parent="1">
          <mxGeometry x="640" y="1130" width="120" height="60" as="geometry" />
        </mxCell>
        <mxCell id="fpMx2bpj-IznDV89DZn9-140" style="edgeStyle=orthogonalEdgeStyle;rounded=0;orthogonalLoop=1;jettySize=auto;html=1;entryX=0.5;entryY=1;entryDx=0;entryDy=0;" edge="1" parent="1" source="fpMx2bpj-IznDV89DZn9-141" target="fpMx2bpj-IznDV89DZn9-136">
          <mxGeometry relative="1" as="geometry" />
        </mxCell>
        <mxCell id="fpMx2bpj-IznDV89DZn9-141" value="spark&lt;br&gt;元数据发现任务&lt;br&gt;数据入湖任务" style="rounded=0;whiteSpace=wrap;html=1;" vertex="1" parent="1">
          <mxGeometry x="580" y="1400" width="120" height="60" as="geometry" />
        </mxCell>
        <mxCell id="fpMx2bpj-IznDV89DZn9-142" value="DLF元数据流" style="text;html=1;strokeColor=none;fillColor=none;align=center;verticalAlign=middle;whiteSpace=wrap;rounded=0;" vertex="1" parent="1">
          <mxGeometry x="850" y="1130" width="40" height="20" as="geometry" />
        </mxCell>
        <mxCell id="fpMx2bpj-IznDV89DZn9-153" style="edgeStyle=orthogonalEdgeStyle;rounded=0;orthogonalLoop=1;jettySize=auto;html=1;entryX=0.5;entryY=0;entryDx=0;entryDy=0;" edge="1" parent="1" source="fpMx2bpj-IznDV89DZn9-144" target="fpMx2bpj-IznDV89DZn9-149">
          <mxGeometry relative="1" as="geometry">
            <Array as="points">
              <mxPoint x="230" y="1080" />
              <mxPoint x="590" y="1080" />
            </Array>
          </mxGeometry>
        </mxCell>
        <mxCell id="fpMx2bpj-IznDV89DZn9-144" value="hybris-hms-client" style="rounded=0;whiteSpace=wrap;html=1;" vertex="1" parent="1">
          <mxGeometry x="170" y="1370" width="120" height="30" as="geometry" />
        </mxCell>
        <mxCell id="fpMx2bpj-IznDV89DZn9-145" style="edgeStyle=orthogonalEdgeStyle;rounded=0;orthogonalLoop=1;jettySize=auto;html=1;" edge="1" parent="1" source="fpMx2bpj-IznDV89DZn9-146" target="fpMx2bpj-IznDV89DZn9-148">
          <mxGeometry relative="1" as="geometry" />
        </mxCell>
        <mxCell id="fpMx2bpj-IznDV89DZn9-146" value="hybris-hms" style="rounded=0;whiteSpace=wrap;html=1;" vertex="1" parent="1">
          <mxGeometry x="780" y="1290" width="120" height="30" as="geometry" />
        </mxCell>
        <mxCell id="fpMx2bpj-IznDV89DZn9-148" value="hybris-service" style="rounded=0;whiteSpace=wrap;html=1;" vertex="1" parent="1">
          <mxGeometry x="707" y="1350" width="120" height="30" as="geometry" />
        </mxCell>
        <mxCell id="fpMx2bpj-IznDV89DZn9-150" style="edgeStyle=orthogonalEdgeStyle;rounded=0;orthogonalLoop=1;jettySize=auto;html=1;entryX=0;entryY=0.5;entryDx=0;entryDy=0;" edge="1" parent="1" source="fpMx2bpj-IznDV89DZn9-149" target="fpMx2bpj-IznDV89DZn9-139">
          <mxGeometry relative="1" as="geometry" />
        </mxCell>
        <mxCell id="fpMx2bpj-IznDV89DZn9-149" value="DLF 云API" style="rounded=0;whiteSpace=wrap;html=1;" vertex="1" parent="1">
          <mxGeometry x="530" y="1100" width="120" height="20" as="geometry" />
        </mxCell>
        <mxCell id="fpMx2bpj-IznDV89DZn9-154" value="内部打通" style="text;html=1;strokeColor=#b85450;fillColor=#f8cecc;align=center;verticalAlign=middle;whiteSpace=wrap;rounded=0;" vertex="1" parent="1">
          <mxGeometry x="380" y="575" width="130" height="20" as="geometry" />
        </mxCell>
        <mxCell id="fpMx2bpj-IznDV89DZn9-155" value="云api打通" style="text;html=1;strokeColor=#b85450;fillColor=#f8cecc;align=center;verticalAlign=middle;whiteSpace=wrap;rounded=0;" vertex="1" parent="1">
          <mxGeometry x="380" y="1020" width="130" height="20" as="geometry" />
        </mxCell>
      </root>
    </mxGraphModel>
  </diagram>
</mxfile>
